<svg width="111" height="97" viewBox="0 0 111 97" fill="none" xmlns="http://www.w3.org/2000/svg">
<mask id="mask0_103_2862" style="mask-type:alpha" maskUnits="userSpaceOnUse" x="21" y="1" width="84" height="95">
<path d="M59.0492 2.35829C61.5426 0.90134 64.6278 0.901341 67.1212 2.35829L100.623 21.9338C103.078 23.3682 104.587 25.9978 104.587 28.8411V68.1589C104.587 71.0022 103.078 73.6318 100.623 75.0662L67.1212 94.6417C64.6277 96.0987 61.5426 96.0987 59.0492 94.6417L25.5474 75.0662C23.0925 73.6318 21.5834 71.0022 21.5834 68.1589V28.8411C21.5834 25.9978 23.0925 23.3682 25.5474 21.9338L59.0492 2.35829Z" fill="#0CAF60"/>
</mask>
<g mask="url(#mask0_103_2862)">
<path d="M59.0492 2.35829C61.5426 0.90134 64.6278 0.901341 67.1212 2.35829L100.623 21.9338C103.078 23.3682 104.587 25.9978 104.587 28.8411V68.1589C104.587 71.0022 103.078 73.6318 100.623 75.0662L67.1212 94.6417C64.6277 96.0987 61.5426 96.0987 59.0492 94.6417L25.5474 75.0662C23.0925 73.6318 21.5834 71.0022 21.5834 68.1589V28.8411C21.5834 25.9978 23.0925 23.3682 25.5474 21.9338L59.0492 2.35829Z" fill="#143888"/>
<path d="M133.003 20.2068H56.5434C54.5888 20.2068 53.0044 21.8103 53.0044 23.7884V76.3706C53.0044 78.3487 54.5888 79.9523 56.5434 79.9523H133.003C134.957 79.9523 136.542 78.3487 136.542 76.3706V23.7884C136.542 21.8103 134.957 20.2068 133.003 20.2068Z" fill="white"/>
<path d="M130.442 22.2389H59.1227C57.3153 22.2389 55.8501 23.7218 55.8501 25.551V73.7616C55.8501 75.5908 57.3153 77.0736 59.1227 77.0736H130.442C132.25 77.0736 133.715 75.5908 133.715 73.7616V25.551C133.715 23.7218 132.25 22.2389 130.442 22.2389Z" fill="#143888"/>
<path d="M138.2 79.3905H49.494C47.7434 79.3905 46.3242 80.8268 46.3242 82.5985V82.9454C46.3242 84.7172 47.7434 86.1534 49.494 86.1534H138.2C139.951 86.1534 141.37 84.7172 141.37 82.9454V82.5985C141.37 80.8268 139.951 79.3905 138.2 79.3905Z" fill="white"/>
<path d="M138.2 79.3905H49.494C47.7434 79.3905 46.3242 80.8268 46.3242 82.5985V82.9454C46.3242 84.7172 47.7434 86.1534 49.494 86.1534H138.2C139.951 86.1534 141.37 84.7172 141.37 82.9454V82.5985C141.37 80.8268 139.951 79.3905 138.2 79.3905Z" fill="#143888"/>
<path d="M103.722 79.4509H84.4395V81.4553H103.722V79.4509Z" fill="#143888"/>
</g>
<g filter="url(#filter0_d_103_2862)">
<path d="M81.4719 30.6015V60.7927C81.4719 61.8482 81.0584 62.8608 80.3219 63.6083C79.5855 64.3557 78.5862 64.7772 77.5432 64.7803H16.8178C16.3008 64.7803 15.7888 64.6771 15.3113 64.4766C14.8337 64.2761 14.3999 63.9822 14.0347 63.6118C13.6695 63.2414 13.3801 62.8017 13.1831 62.318C12.986 61.8342 12.8851 61.3159 12.8862 60.7927V30.6015C12.8862 29.5462 13.3005 28.5342 14.0378 27.788C14.7751 27.0418 15.7751 26.6226 16.8178 26.6226H77.5432C78.585 26.6248 79.5834 27.0449 80.3197 27.7907C81.0561 28.5365 81.4704 29.5472 81.4719 30.6015Z" fill="white"/>
<path d="M64.2939 63.9989L76.2745 71.9412V62.2412L64.2939 63.9989Z" fill="white"/>
</g>
<path d="M47.1239 34.364C46.9468 34.4285 46.752 34.4209 46.5804 34.3429C46.4087 34.265 46.2737 34.1226 46.2036 33.9459L45.5142 32.092C45.3171 31.5857 44.931 31.1782 44.4394 30.9579C43.9478 30.7375 43.3902 30.7219 42.8873 30.9144C42.3844 31.1069 41.9766 31.4921 41.7522 31.9866C41.5277 32.4811 41.5047 33.0451 41.6881 33.5567L42.6425 36.1084C42.6578 36.1505 42.6693 36.1939 42.6766 36.2382H41.1667L40.3547 34.067C40.0475 33.2002 40.0889 32.2459 40.4701 31.4097C40.8513 30.5735 41.5418 29.9224 42.3928 29.5964C43.2439 29.2705 44.1874 29.2959 45.02 29.6673C45.8527 30.0386 46.508 30.7261 46.8447 31.5816L47.537 33.4327C47.5704 33.5213 47.5862 33.6157 47.5836 33.7105C47.5809 33.8053 47.5598 33.8986 47.5214 33.9851C47.483 34.0716 47.4281 34.1496 47.3599 34.2146C47.2917 34.2797 47.2115 34.3304 47.1239 34.364Z" fill="#143888"/>
<path d="M49.3466 36.2568H39.9878V45.0077H49.3466V36.2568Z" fill="#143888"/>
<path d="M49.3312 36.2386H43.4624V44.9895H49.3312V36.2386Z" fill="#143888"/>
<path d="M44.4438 40.3392C44.4438 40.3392 43.5208 39.5607 44.327 38.8976C45.1333 38.2344 46.0364 39.6184 45.1817 40.3392L45.7829 41.9625H43.7544L44.4438 40.3392Z" fill="white"/>
<path d="M70.0122 47.9707C71.0425 47.9707 71.8755 48.8157 71.8755 49.8555V54.9473C71.8753 55.9869 71.0424 56.832 70.0122 56.832H23.5347C22.5044 56.832 21.6715 55.9869 21.6714 54.9473V49.8555C21.6714 48.8157 22.5044 47.9707 23.5347 47.9707H70.0122Z" fill="white" stroke="#CCCCCC" stroke-width="0.2"/>
<path d="M28.924 54.0071C29.9105 54.0071 30.7103 53.1978 30.7103 52.1993C30.7103 51.2009 29.9105 50.3915 28.924 50.3915C27.9374 50.3915 27.1377 51.2009 27.1377 52.1993C27.1377 53.1978 27.9374 54.0071 28.924 54.0071Z" fill="#143888"/>
<path d="M33.7516 54.0071C34.7382 54.0071 35.5379 53.1978 35.5379 52.1993C35.5379 51.2009 34.7382 50.3915 33.7516 50.3915C32.7651 50.3915 31.9653 51.2009 31.9653 52.1993C31.9653 53.1978 32.7651 54.0071 33.7516 54.0071Z" fill="#143888"/>
<path d="M38.5622 54.0071C39.5487 54.0071 40.3485 53.1978 40.3485 52.1993C40.3485 51.2009 39.5487 50.3915 38.5622 50.3915C37.5756 50.3915 36.7759 51.2009 36.7759 52.1993C36.7759 53.1978 37.5756 54.0071 38.5622 54.0071Z" fill="#143888"/>
<path d="M43.3898 54.0071C44.3764 54.0071 45.1761 53.1978 45.1761 52.1993C45.1761 51.2009 44.3764 50.3915 43.3898 50.3915C42.4033 50.3915 41.6035 51.2009 41.6035 52.1993C41.6035 53.1978 42.4033 54.0071 43.3898 54.0071Z" fill="#143888"/>
<path d="M48.5822 54.0071C49.5687 54.0071 50.3685 53.1978 50.3685 52.1993C50.3685 51.2009 49.5687 50.3915 48.5822 50.3915C47.5957 50.3915 46.7959 51.2009 46.7959 52.1993C46.7959 53.1978 47.5957 54.0071 48.5822 54.0071Z" fill="#143888"/>
<path d="M53.3927 54.0071C54.3793 54.0071 55.179 53.1978 55.179 52.1993C55.179 51.2009 54.3793 50.3915 53.3927 50.3915C52.4062 50.3915 51.6064 51.2009 51.6064 52.1993C51.6064 53.1978 52.4062 54.0071 53.3927 54.0071Z" fill="#143888"/>
<path d="M58.2145 54.0071C59.2011 54.0071 60.0008 53.1978 60.0008 52.1993C60.0008 51.2009 59.2011 50.3915 58.2145 50.3915C57.228 50.3915 56.4282 51.2009 56.4282 52.1993C56.4282 53.1978 57.228 54.0071 58.2145 54.0071Z" fill="#143888"/>
<path d="M63.0309 54.0071C64.0175 54.0071 64.8172 53.1978 64.8172 52.1993C64.8172 51.2009 64.0175 50.3915 63.0309 50.3915C62.0444 50.3915 61.2446 51.2009 61.2446 52.1993C61.2446 53.1978 62.0444 54.0071 63.0309 54.0071Z" fill="#143888"/>
<path d="M15.2836 23.7997C15.0066 23.7995 14.7356 23.7176 14.5038 23.564C14.2721 23.4103 14.0896 23.1917 13.9788 22.9347L10.9019 15.761C10.8271 15.5872 10.7869 15.4002 10.7834 15.2106C10.78 15.0211 10.8135 14.8327 10.8821 14.6563C10.9506 14.4798 11.0528 14.3188 11.1828 14.1823C11.3128 14.0458 11.4681 13.9366 11.6398 13.8609C11.8116 13.7852 11.9963 13.7444 12.1836 13.741C12.3709 13.7375 12.557 13.7714 12.7314 13.8408C12.9057 13.9101 13.0649 14.0135 13.1997 14.1451C13.3345 14.2767 13.4425 14.4339 13.5173 14.6077L16.5913 21.7842C16.686 22.0038 16.7251 22.2438 16.7052 22.4825C16.6852 22.7212 16.6068 22.9511 16.477 23.1514C16.3472 23.3517 16.1701 23.5162 15.9618 23.6299C15.7534 23.7436 15.5203 23.8029 15.2836 23.8025V23.7997Z" fill="#143888"/>
<path d="M1.47226 33.6344C1.09447 33.647 0.727192 33.5072 0.451235 33.2458C0.175278 32.9843 0.0132435 32.6226 0.000776288 32.2403C-0.0116909 31.8579 0.126431 31.4862 0.384756 31.207C0.643082 30.9277 1.00045 30.7637 1.37825 30.7511L9.08466 30.2292C9.46246 30.2036 9.83484 30.3309 10.1199 30.5831C10.4049 30.8354 10.5793 31.1919 10.6046 31.5743C10.6299 31.9566 10.5041 32.3335 10.2548 32.6219C10.0056 32.9104 9.65334 33.0869 9.27554 33.1125L1.56628 33.6315L1.47226 33.6344Z" fill="#143888"/>
<path d="M9.67193 26.5393C9.39029 26.5385 9.11538 26.4521 8.88277 26.2914L2.48118 21.8972C2.17498 21.6797 1.96561 21.3491 1.89827 20.9767C1.83094 20.6043 1.91105 20.22 2.12131 19.9069C2.33156 19.5937 2.65508 19.3769 3.022 19.3031C3.38891 19.2294 3.76976 19.3047 4.08229 19.5127L10.4725 23.9069C10.7238 24.0804 10.9135 24.3308 11.014 24.6214C11.1146 24.912 11.1205 25.2275 11.031 25.5218C10.9415 25.816 10.7613 26.0735 10.5168 26.2567C10.2722 26.4398 9.97614 26.5388 9.67193 26.5393Z" fill="#143888"/>
<defs>
<filter id="filter0_d_103_2862" x="0.88623" y="18.6226" width="100.585" height="77.3186" filterUnits="userSpaceOnUse" color-interpolation-filters="sRGB">
<feFlood flood-opacity="0" result="BackgroundImageFix"/>
<feColorMatrix in="SourceAlpha" type="matrix" values="0 0 0 0 0 0 0 0 0 0 0 0 0 0 0 0 0 0 127 0" result="hardAlpha"/>
<feOffset dx="4" dy="8"/>
<feGaussianBlur stdDeviation="8"/>
<feColorMatrix type="matrix" values="0 0 0 0 0.0666667 0 0 0 0 0.0941176 0 0 0 0 0.152941 0 0 0 0.08 0"/>
<feBlend mode="normal" in2="BackgroundImageFix" result="effect1_dropShadow_103_2862"/>
<feBlend mode="normal" in="SourceGraphic" in2="effect1_dropShadow_103_2862" result="shape"/>
</filter>
</defs>
</svg>
