<svg width="143" height="21" viewBox="0 0 143 21" fill="none" xmlns="http://www.w3.org/2000/svg">
<path d="M31.9514 8.10109V2.23478L32.9098 0C33.7618 0.186233 34.2943 0.651813 34.5072 1.39674V9.21848L33.8683 9.77718L31.9514 8.10109ZM33.8683 10.0565L34.5072 10.6152V18.437C34.2943 19.1819 33.7618 19.6475 32.9098 19.8337L31.9514 17.5989V11.7326L33.8683 10.0565Z" fill="#143888"/>
<path d="M26.2047 8.93913L27.4826 10.0565L26.2047 11.1739H17.8981L16.6201 10.0565L17.8981 8.93913H26.2047ZM28.1216 10.3359L28.7606 10.8946V18.7163C28.5476 19.4612 28.0151 19.9268 27.1632 20.113L26.2047 17.8783V12.012L28.1216 10.3359ZM26.5242 20.113H16.9396C16.0876 19.9268 15.5552 19.4612 15.3422 18.7163L17.8981 17.8783H25.5657L26.5242 20.113ZM17.8981 2.79348V8.10109L15.9811 9.77717L15.3422 9.21848V1.95543L17.8981 2.79348ZM17.93 2.23478L15.3741 1.39674C15.5871 0.651813 16.1196 0.186233 16.9715 0H27.1632C28.0151 0.186233 28.5476 0.651813 28.7606 1.39674L26.2047 2.23478H17.93Z" fill="#143888"/>
<path d="M10.8625 8.93913L12.1405 10.0565L10.8625 11.1739H2.55589L1.27795 10.0565L2.55589 8.93913H10.8625ZM12.1405 20.113H1.59743C0.745468 19.9268 0.212991 19.4612 0 18.7163L2.55589 17.8783H11.182L12.1405 20.113ZM0 18.1576V10.8946L0.638973 10.3359L2.55589 12.012V17.3196L0 18.1576ZM11.182 2.23478H2.58784L0.0319487 1.39674C0.24494 0.651813 0.777417 0.186233 1.62938 0H12.1405L11.182 2.23478ZM2.55589 2.79348V8.10109L0.638973 9.77717L0 9.21848V1.95543L2.55589 2.79348Z" fill="#143888"/>
<path d="M129.013 18.156V10.8936L129.651 10.335L131.568 12.0109V17.3181L129.013 18.156ZM139.235 2.23459H131.568L129.013 1.39662V0H139.235L140.513 1.1173L139.235 2.23459ZM131.568 2.79324V8.10039L129.651 9.77633L129.013 9.21768V1.95527L131.568 2.79324ZM139.874 8.10039V2.23459L140.832 1.39662L142.43 2.79324V9.21768L141.791 9.77633L139.874 8.10039ZM141.791 10.335L142.43 10.8936V17.3181L140.832 18.7147L139.874 17.8767V12.0109L141.791 10.335ZM140.481 18.994L139.203 20.1113H129.013V18.7147L131.568 17.8767H139.203L140.481 18.994Z" fill="#143888"/>
<path d="M114.961 12.0116V17.8774L114.002 20.112C113.15 19.9258 112.618 19.4603 112.405 18.7154V10.8943L113.044 10.3357L114.961 12.0116ZM122.628 8.38042H120.391L115.599 4.19056V2.51462H117.516L122.628 6.9838V8.38042ZM125.183 10.3357L125.822 10.8943V18.7154C125.609 19.4603 125.077 19.9258 124.225 20.112L123.266 17.8774V12.0116L125.183 10.3357ZM123.266 8.38042V2.51462L124.225 0.280029C125.077 0.466245 125.609 0.931784 125.822 1.67665V9.49771L125.183 10.0564L123.266 8.38042ZM113.044 10.0564L112.405 9.49771V1.67665C112.618 0.931784 113.15 0.466245 114.002 0.280029L114.961 2.51462V8.38042L113.044 10.0564Z" fill="#143888"/>
<path d="M107.926 8.93836L109.204 10.0557L107.926 11.1729H99.6205L98.3427 10.0557L99.6205 8.93836H107.926ZM109.204 20.1113H98.6622C97.8103 19.9251 97.2779 19.4595 97.0649 18.7147L99.6205 17.8767H108.246L109.204 20.1113ZM97.0649 18.156V10.8936L97.7038 10.335L99.6205 12.0109V17.3181L97.0649 18.156ZM108.246 2.23459H99.6525L97.0968 1.39662C97.3098 0.651757 97.8422 0.186217 98.6941 0H109.204L108.246 2.23459ZM99.6205 2.79324V8.10039L97.7038 9.77633L97.0649 9.21768V1.95527L99.6205 2.79324Z" fill="#143888"/>
<path d="M87.1658 10.335L88.4436 11.4523V18.7147C88.2306 19.4595 87.6982 19.9251 86.8463 20.1113L85.888 17.8767V11.4523L87.1658 10.335ZM85.888 8.65903V2.79324H88.4436V8.65903L87.1658 9.77633L85.888 8.65903ZM83.0448 2.23459L80.4891 1.39662C80.7021 0.651757 81.2345 0.186217 82.0864 0H92.2771C93.129 0.186217 93.6614 0.651757 93.8744 1.39662L91.3187 2.23459H83.0448Z" fill="#143888"/>
<path d="M70.5907 10.335L71.8686 11.4523V18.7147C71.6556 19.4595 71.1231 19.9251 70.2713 20.1113L69.3129 17.8767V11.4523L70.5907 10.335ZM69.3129 8.65903V2.79324H71.8686V8.65903L70.5907 9.77633L69.3129 8.65903ZM66.4697 2.23459L63.9141 1.39662C64.127 0.651757 64.6595 0.186217 65.5114 0H75.702C76.5539 0.186217 77.0864 0.651757 77.2993 1.39662L74.7437 2.23459H66.4697Z" fill="#143888"/>
<path d="M58.1669 8.93836L59.4447 10.0557L58.1669 11.1729H49.861L48.5832 10.0557L49.861 8.93836H58.1669ZM60.0837 10.335L60.7226 10.8936V18.7147C60.5096 19.4595 59.9772 19.9251 59.1253 20.1113L58.1669 17.8767V12.0109L60.0837 10.335ZM57.528 2.23459H49.893L47.3373 1.39662C47.5503 0.651757 48.0827 0.186217 48.9346 0H58.4864L57.528 2.23459ZM49.861 2.79324V8.10039L47.9443 9.77633L47.3054 9.21768V1.95527L49.861 2.79324ZM58.1669 8.10039V2.23459L59.1253 0C59.9772 0.186217 60.5096 0.651757 60.7226 1.39662V9.21768L60.0837 9.77633L58.1669 8.10039ZM49.861 12.0109V17.8767L48.9026 20.1113C48.0508 19.9251 47.5183 19.4595 47.3054 18.7147V10.8936L47.9443 10.335L49.861 12.0109Z" fill="#143888"/>
<path d="M40.5476 13.8205H43.2508V16.2226H40.5476V13.8205ZM40.5476 5.40979H43.2508V7.86958H40.5476V5.40979Z" fill="#143888"/>
</svg>
